SplineFontDB: 3.2
FontName: tnaicons
FullName: tnaicons
FamilyName: tnaicons
Weight: Regular
Copyright: Copyright (c) 2024, Martin Hunt, Thomas Hunt
UComments: "2024-11-4: Created with FontForge (http://fontforge.org)"
Version: 001.000
ItalicAngle: 0
UnderlinePosition: -100
UnderlineWidth: 50
Ascent: 800
Descent: 200
InvalidEm: 0
LayerCount: 2
Layer: 0 0 "Back" 1
Layer: 1 0 "Fore" 0
XUID: [1021 892 1532076217 16629076]
StyleMap: 0x0000
FSType: 0
OS2Version: 0
OS2_WeightWidthSlopeOnly: 0
OS2_UseTypoMetrics: 1
CreationTime: 1730736249
ModificationTime: 1732181627
OS2TypoAscent: 0
OS2TypoAOffset: 1
OS2TypoDescent: 0
OS2TypoDOffset: 1
OS2TypoLinegap: 90
OS2WinAscent: 0
OS2WinAOffset: 1
OS2WinDescent: 0
OS2WinDOffset: 1
HheadAscent: 0
HheadAOffset: 1
HheadDescent: 0
HheadDOffset: 1
OS2Vendor: 'PfEd'
MarkAttachClasses: 1
DEI: 91125
Encoding: ISO8859-1
UnicodeInterp: none
NameList: AGL For New Fonts
DisplaySize: -48
AntiAlias: 1
FitToEm: 0
WinInfo: 48 16 6
BeginPrivate: 0
EndPrivate
BeginChars: 256 33

StartChar: A
Encoding: 65 65 0
Width: 1000
Flags: HMW
LayerCount: 2
Fore
SplineSet
925 525.404296875 m 5
 925 340.405273438 l 5
 303.787109375 342.952148438 l 5
 355.061523438 115.596679688 l 4
 75 400.661132812 l 5
 75 476.66015625 l 5
 357.270507812 755.592773438 l 4
 304.50390625 527.950195312 l 5
 925 525.404296875 l 5
75 33 m 5
 925 33 l 5
 925 -139 l 5
 75 -139 l 5
 75 33 l 5
EndSplineSet
Validated: 1
EndChar

StartChar: B
Encoding: 66 66 1
Width: 1000
Flags: HMW
LayerCount: 2
Fore
SplineSet
74 525.404296875 m 1
 694.49609375 527.950195312 l 1
 641.729492188 755.592773438 l 0
 924 476.66015625 l 1
 924 400.661132812 l 1
 643.938476562 115.596679688 l 0
 695.212890625 342.952148438 l 1
 74 340.405273438 l 1
 74 525.404296875 l 1
924 33 m 1
 924 -139 l 1
 74 -139 l 1
 74 33 l 1
 924 33 l 1
EndSplineSet
Validated: 1
EndChar

StartChar: E
Encoding: 69 69 2
Width: 1000
Flags: W
HStem: -139 172<239 928> 340.853 184.552<237 698.496> 735.593 20G<650.365 665.969>
VStem: 78 161<33 340.853>
LayerCount: 2
Fore
SplineSet
237 340.852539062 m 1
 239 33 l 1
 928 33 l 1
 928 -139 l 1
 78 -139 l 1
 78 525.404296875 l 1
 698.49609375 527.950195312 l 1
 645.729492188 755.592773438 l 0
 928 476.66015625 l 1
 928 400.661132812 l 1
 647.938476562 115.596679688 l 0
 699.212890625 342.952148438 l 1
 237 340.852539062 l 1
EndSplineSet
Validated: 1
EndChar

StartChar: D
Encoding: 68 68 3
Width: 1000
Flags: HMW
LayerCount: 2
Fore
SplineSet
766 340.852539062 m 5
 303.787109375 342.952148438 l 5
 355.061523438 115.596679688 l 4
 75 400.661132812 l 5
 75 476.66015625 l 5
 357.270507812 755.592773438 l 4
 304.50390625 527.950195312 l 5
 925 525.404296875 l 5
 925 -139 l 5
 75 -139 l 5
 75 33 l 5
 764 33 l 5
 766 340.852539062 l 5
EndSplineSet
Validated: 1
EndChar

StartChar: C
Encoding: 67 67 4
Width: 1000
Flags: HMW
LayerCount: 2
Fore
SplineSet
925 525.404296875 m 1
 925 340.405273438 l 1
 326.966526994 342.857116476 l 1
 315.228769899 292.218773141 l 1
 325.683103338 245.863296966 l 1
 925 243.404296875 l 1
 925 58.4052734375 l 1
 303.787109375 60.9521484375 l 1
 355.061523438 -166.403320312 l 1
 75 118.661132812 l 1
 75 194.66015625 l 1
 177.690438503 296.136265085 l 1
 75 400.661132812 l 1
 75 476.66015625 l 1
 357.270507812 755.592773438 l 1
 304.50390625 527.950195312 l 1
 925 525.404296875 l 1
EndSplineSet
Validated: 1
EndChar

StartChar: F
Encoding: 70 70 5
Width: 1000
Flags: HMW
LayerCount: 2
Fore
SplineSet
80 525.404296875 m 1
 700.49609375 527.950195312 l 1
 647.729492188 755.592773438 l 1
 930 476.66015625 l 1
 930 400.661132812 l 1
 827.309561497 296.136265085 l 1
 930 194.66015625 l 1
 930 118.661132812 l 1
 649.938476562 -166.403320312 l 1
 701.212890625 60.9521484375 l 1
 80 58.4052734375 l 1
 80 243.404296875 l 1
 679.316896662 245.863296966 l 1
 689.771230101 292.218773141 l 1
 678.033473006 342.857116476 l 1
 80 340.405273438 l 1
 80 525.404296875 l 1
EndSplineSet
Validated: 1
EndChar

StartChar: G
Encoding: 71 71 6
Width: 1000
Flags: HMW
LayerCount: 2
Fore
SplineSet
925 66.595703125 m 5
 304.50390625 64.0498046875 l 5
 357.270507812 -163.592773438 l 4
 75 115.33984375 l 5
 75 191.338867188 l 5
 355.061523438 476.403320312 l 4
 303.787109375 249.047851562 l 5
 925 251.594726562 l 5
 925 66.595703125 l 5
75 559 m 5
 75 731 l 5
 925 731 l 5
 925 559 l 5
 75 559 l 5
EndSplineSet
Validated: 1
EndChar

StartChar: H
Encoding: 72 72 7
Width: 1000
Flags: HMW
LayerCount: 2
Fore
SplineSet
80 66.595703125 m 5
 80 251.594726562 l 5
 701.212890625 249.047851562 l 5
 649.938476562 476.403320312 l 4
 930 191.338867188 l 5
 930 115.33984375 l 5
 647.729492188 -163.592773438 l 4
 700.49609375 64.0498046875 l 5
 80 66.595703125 l 5
930 559 m 5
 80 559 l 5
 80 731 l 5
 930 731 l 5
 930 559 l 5
EndSplineSet
Validated: 1
EndChar

StartChar: I
Encoding: 73 73 8
Width: 1000
Flags: HMW
LayerCount: 2
Fore
SplineSet
85 244 m 5
 85 402 l 5
 915 402 l 5
 915 244 l 5
 85 244 l 5
EndSplineSet
Validated: 1
EndChar

StartChar: K
Encoding: 75 75 9
Width: 1000
Flags: W
HStem: 235 157<58 429 581 934> 644 20G<429 581>
VStem: 429 152<-101 235 392 664>
LayerCount: 2
Fore
SplineSet
58 235 m 1
 58 392 l 1
 429 392 l 1
 429 664 l 1
 581 664 l 1
 581 392 l 1
 934 392 l 1
 934 235 l 1
 581 235 l 1
 581 -101 l 1
 429 -101 l 1
 429 235 l 1
 58 235 l 1
EndSplineSet
Validated: 1
EndChar

StartChar: J
Encoding: 74 74 10
Width: 1000
Flags: W
HStem: 216 105<299 710> 446 20G<340.073 358.483 630.69 649.098>
VStem: 6 85<-110 690> 910 85<-110 690>
LayerCount: 2
Fore
SplineSet
6 690 m 1
 91 690 l 1
 91 -110 l 1
 6 -110 l 1
 6 690 l 1
139 302 m 1
 368 466 l 1
 299 321 l 1
 710 321 l 1
 618 466 l 0
 873 302 l 1
 873 259 l 1
 618 80 l 0
 710 216 l 1
 299 216 l 1
 368 80 l 1
 139 259 l 1
 139 302 l 1
910 690 m 1
 995 690 l 1
 995 -110 l 1
 910 -110 l 1
 910 690 l 1
EndSplineSet
Validated: 1
EndChar

StartChar: L
Encoding: 76 76 11
Width: 1000
Flags: HMW
LayerCount: 2
Fore
SplineSet
599 -129 m 5
 414 -129 l 5
 414 528 l 5
 227 436 l 4
 471 711 l 5
 547 711 l 5
 797 436 l 4
 599 528 l 5
 599 -129 l 5
EndSplineSet
Validated: 1
EndChar

StartChar: M
Encoding: 77 77 12
Width: 1000
Flags: HMW
LayerCount: 2
Fore
SplineSet
419.231445312 716.9765625 m 1
 604.229492188 717.719726562 l 1
 606.868164062 60.724609375 l 1
 793.497070312 153.474609375 l 0
 550.603515625 -122.502929688 l 1
 474.604492188 -122.807617188 l 1
 223.501953125 151.185546875 l 0
 421.869140625 59.9814453125 l 1
 419.231445312 716.9765625 l 1
EndSplineSet
Validated: 1
EndChar

StartChar: N
Encoding: 78 78 13
Width: 1000
HStem: 572 20G<260 308.257 721.812 765.857>
LayerCount: 2
Fore
SplineSet
743 592 m 25
 823 522 l 1
 593 310 l 1
 823 102 l 1
 743 28 l 1
 519 228 l 1
 284 18 l 1
 214 106 l 1
 455 310 l 1
 200 522 l 1
 284 592 l 1
 529 390 l 1
 743 592 l 25
EndSplineSet
Validated: 1
EndChar

StartChar: R
Encoding: 82 82 14
Width: 1000
Flags: W
HStem: -175 157.986<385.186 569.583> 221 20G<887 907.769> 451 195G<586 636.845 986.647 989> 605.014 157.986<429.417 613.814>
LayerCount: 2
Fore
SplineSet
995 137 m 5xc0
 995 137 667 -167 487 -175 c 5
 324.206054688 -169.772460938 194.8359375 -21.08984375 120 62 c 4
 115.99609375 66.4453125 110.467773438 68.3173828125 103.995117188 68.3173828125 c 4
 69.4453125 68.3173828125 10 -78 10 -78 c 5
 52 279 l 5
 413 137 l 5
 413 137 292.154296875 138.8671875 261.086914062 138.8671875 c 4
 242.744140625 138.8671875 228.159179688 136.822265625 228.159179688 130.317382812 c 4
 228.159179688 129.015625 228.744140625 127.534179688 230 125.85546875 c 4
 276.5078125 63.6884765625 352.564453125 -17.013671875 482.486328125 -17.013671875 c 4
 483.323242188 -17.013671875 484.161132812 -17.0087890625 485 -17 c 4
 634.991210938 -15.3515625 887 241 887 241 c 5
 995 137 l 5xc0
4 451 m 5xe0
 4 451 332 755 512 763 c 5xd0
 674.793945312 757.772460938 804.1640625 609.08984375 879 526 c 4
 883.00390625 521.5546875 888.532226562 519.682617188 895.004882812 519.682617188 c 4
 929.5546875 519.682617188 989 666 989 666 c 5
 947 309 l 5
 586 451 l 5xe0
 586 451 706.845703125 449.1328125 737.913085938 449.1328125 c 4
 756.255859375 449.1328125 770.840820312 451.177734375 770.840820312 457.682617188 c 4
 770.840820312 458.984375 770.255859375 460.465820312 769 462.14453125 c 4
 722.4921875 524.311523438 646.435546875 605.013671875 516.513671875 605.013671875 c 4xd0
 515.676757812 605.013671875 514.838867188 605.008789062 514 605 c 4
 364.008789062 603.3515625 112 347 112 347 c 5
 4 451 l 5xe0
EndSplineSet
Validated: 1
EndChar

StartChar: S
Encoding: 83 83 15
Width: 1000
Flags: W
HStem: -62 140<209 509 669 991> 449 20G<7 9.35294> 508.014 157.986<410.219 547.585>
LayerCount: 2
Fore
SplineSet
987 214 m 5
 834 150 l 5
 834 150 631.991210938 506.3515625 482 508 c 4
 481.161132812 508.008789062 480.323242188 508.013671875 479.486328125 508.013671875 c 4
 349.564453125 508.013671875 273.5078125 327.311523438 227 265.14453125 c 4
 225.744140625 263.465820312 225.159179688 261.984375 225.159179688 260.682617188 c 4
 225.159179688 254.177734375 239.744140625 252.1328125 258.086914062 252.1328125 c 4
 289.154296875 252.1328125 410 254 410 254 c 5
 49 112 l 5
 7 469 l 5
 7 469 66.4453125 322.682617188 100.995117188 322.682617188 c 4
 107.467773438 322.682617188 112.99609375 324.5546875 117 329 c 4
 191.8359375 412.08984375 321.206054688 660.772460938 484 666 c 5
 664 658 987 214 987 214 c 5
669 78 m 1
 991 78 l 1
 991 -62 l 1
 669 -62 l 1
 669 78 l 1
209 78 m 1
 509 78 l 1
 509 -62 l 1
 209 -62 l 1
 209 78 l 1
EndSplineSet
Validated: 1
EndChar

StartChar: T
Encoding: 84 84 16
Width: 1000
Flags: W
HStem: -122 140<202 256 362 446 542 656 732 994> 365 20G<10 12.3529> 557.014 157.986<427.56 541.012>
VStem: 202 54<-122 18> 362 84<-122 18> 542 114<-122 18>
LayerCount: 2
Fore
SplineSet
202 18 m 1
 256 18 l 1
 256 -122 l 1
 202 -122 l 1
 202 18 l 1
362 18 m 1
 446 18 l 1
 446 -122 l 1
 362 -122 l 1
 362 18 l 1
990 130 m 1
 837 66 l 1
 837 66 634.991210938 555.3515625 485 557 c 0
 484.161132812 557.008789062 483.323242188 557.013671875 482.486328125 557.013671875 c 0
 352.564453125 557.013671875 276.5078125 243.311523438 230 181.14453125 c 0
 228.744140625 179.465820312 228.159179688 177.984375 228.159179688 176.682617188 c 0
 228.159179688 170.177734375 242.744140625 168.1328125 261.086914062 168.1328125 c 0
 292.154296875 168.1328125 413 170 413 170 c 1
 52 28 l 1
 10 385 l 1
 10 385 69.4453125 238.682617188 103.995117188 238.682617188 c 0
 110.467773438 238.682617188 115.99609375 240.5546875 120 245 c 0
 194.8359375 328.08984375 324.206054688 709.772460938 487 715 c 1
 667 707 990 130 990 130 c 1
732 18 m 1
 994 18 l 1
 994 -122 l 1
 732 -122 l 1
 732 18 l 1
542 18 m 1
 656 18 l 1
 656 -122 l 1
 542 -122 l 1
 542 18 l 1
EndSplineSet
Validated: 1
EndChar

StartChar: U
Encoding: 85 85 17
Width: 1000
Flags: W
HStem: -62 140<5 327 487 787> 449 20G<986.647 989> 508.014 157.986<448.415 585.781>
LayerCount: 2
Fore
SplineSet
9 214 m 5
 9 214 332 658 512 666 c 5
 674.793945312 660.772460938 804.1640625 412.08984375 879 329 c 4
 883.00390625 324.5546875 888.532226562 322.682617188 895.004882812 322.682617188 c 4
 929.5546875 322.682617188 989 469 989 469 c 5
 947 112 l 5
 586 254 l 5
 586 254 706.845703125 252.1328125 737.913085938 252.1328125 c 4
 756.255859375 252.1328125 770.840820312 254.177734375 770.840820312 260.682617188 c 4
 770.840820312 261.984375 770.255859375 263.465820312 769 265.14453125 c 4
 722.4921875 327.311523438 646.435546875 508.013671875 516.513671875 508.013671875 c 4
 515.676757812 508.013671875 514.838867188 508.008789062 514 508 c 4
 364.008789062 506.3515625 162 150 162 150 c 5
 9 214 l 5
327 78 m 5
 327 -62 l 5
 5 -62 l 5
 5 78 l 5
 327 78 l 5
787 78 m 5
 787 -62 l 5
 487 -62 l 5
 487 78 l 5
 787 78 l 5
EndSplineSet
Validated: 1
EndChar

StartChar: V
Encoding: 86 86 18
Width: 1000
Flags: W
HStem: -122 140<5 267 343 457 553 637 743 797> 365 20G<986.647 989> 557.014 157.986<457.988 571.44>
VStem: 343 114<-122 18> 553 84<-122 18> 743 54<-122 18>
LayerCount: 2
Fore
SplineSet
797 18 m 5
 797 -122 l 5
 743 -122 l 5
 743 18 l 5
 797 18 l 5
637 18 m 5
 637 -122 l 5
 553 -122 l 5
 553 18 l 5
 637 18 l 5
9 130 m 5
 9 130 332 707 512 715 c 5
 674.793945312 709.772460938 804.1640625 328.08984375 879 245 c 4
 883.00390625 240.5546875 888.532226562 238.682617188 895.004882812 238.682617188 c 4
 929.5546875 238.682617188 989 385 989 385 c 5
 947 28 l 5
 586 170 l 5
 586 170 706.845703125 168.1328125 737.913085938 168.1328125 c 4
 756.255859375 168.1328125 770.840820312 170.177734375 770.840820312 176.682617188 c 4
 770.840820312 177.984375 770.255859375 179.465820312 769 181.14453125 c 4
 722.4921875 243.311523438 646.435546875 557.013671875 516.513671875 557.013671875 c 4
 515.676757812 557.013671875 514.838867188 557.008789062 514 557 c 4
 364.008789062 555.3515625 162 66 162 66 c 5
 9 130 l 5
267 18 m 5
 267 -122 l 5
 5 -122 l 5
 5 18 l 5
 267 18 l 5
457 18 m 5
 457 -122 l 5
 343 -122 l 5
 343 18 l 5
 457 18 l 5
EndSplineSet
Validated: 1
EndChar

StartChar: O
Encoding: 79 79 19
Width: 1000
Flags: W
HStem: 646 20G<50 952>
VStem: 474 66<-96 -56.6852>
LayerCount: 2
Fore
SplineSet
50 666 m 5
 952 666 l 5
 952 560 l 5
 580 355 l 4
 540 -96 l 4
 474 -118 l 4
 420 355 l 4
 50 560 l 5
 50 666 l 5
EndSplineSet
Validated: 1
EndChar

StartChar: W
Encoding: 87 87 20
Width: 1000
Flags: W
HStem: -168 128<48 922> 102 128<48 922> 426 21G<698.726 717.191> 583.468 90.1486<591.814 743.124>
LayerCount: 2
Fore
SplineSet
558 546 m 0
 505 517 476 345 476 345 c 1
 438 345 l 1
 438 345 422.567901235 408.888888889 422.567901235 478.367626886 c 0
 422.567901235 533.950617284 432.444444444 593.111111111 468 626 c 0
 507.423935295 662.467121177 560.291435254 673.616482182 610.20505165 673.616482182 c 0
 688.760846367 673.616482182 760 646 760 646 c 1
 689 762 l 1
 954 614 l 1
 689 426 l 1
 760 572 l 1
 760 572 735.141030032 583.46788993 693.410216825 583.46788993 c 0
 658.514386788 583.46788993 611.820896049 575.448951368 558 546 c 0
48 -40 m 1
 922 -40 l 1
 922 -168 l 1
 48 -168 l 1
 48 -40 l 1
48 230 m 1
 922 230 l 1
 922 102 l 1
 48 102 l 1
 48 230 l 1
EndSplineSet
Validated: 1
EndChar

StartChar: X
Encoding: 88 88 21
Width: 1000
Flags: W
HStem: -95.6162 90.1484<591.814 743.123> 348 128<48 922> 618 128<48 922>
LayerCount: 2
Fore
SplineSet
558 32 m 0
 611.821289062 2.55078125 658.514648438 -5.4677734375 693.41015625 -5.4677734375 c 0
 735.140625 -5.4677734375 760 6 760 6 c 1
 689 152 l 1
 954 -36 l 1
 689 -184 l 1
 760 -68 l 1
 760 -68 688.760742188 -95.6162109375 610.205078125 -95.6162109375 c 0
 560.291015625 -95.6162109375 507.423828125 -84.466796875 468 -48 c 0
 432.444335938 -15.111328125 422.568359375 44.0498046875 422.568359375 99.6328125 c 0
 422.568359375 169.111328125 438 233 438 233 c 1
 476 233 l 1
 476 233 505 61 558 32 c 0
48 618 m 1
 48 746 l 1
 922 746 l 1
 922 618 l 1
 48 618 l 1
48 348 m 1
 48 476 l 1
 922 476 l 1
 922 348 l 1
 48 348 l 1
EndSplineSet
Validated: 1
EndChar

StartChar: Y
Encoding: 89 89 22
Width: 1000
Flags: W
HStem: -135 100.321<363.202 586.371> 360.309 100.321<411.629 634.798> 379.035 20G<965.363 968.92> 610 94<98 926>
LayerCount: 2
Fore
SplineSet
98 704 m 5x90
 926 704 l 5
 926 610 l 5
 98 610 l 5
 98 704 l 5x90
974.6796875 63.1201171875 m 5
 974.6796875 63.1201171875 659.799804688 -129.919921875 487 -135 c 5
 330.717773438 -131.680664062 206.522460938 -37.2666015625 134.6796875 15.4951171875 c 4
 130.8359375 18.3173828125 125.529296875 19.5068359375 119.315429688 19.5068359375 c 4
 86.1474609375 19.5068359375 29.080078125 -73.4052734375 29.080078125 -73.4052734375 c 5
 69.400390625 153.290039062 l 5
 415.959960938 63.1201171875 l 5
 415.959960938 63.1201171875 299.948242188 64.3056640625 270.123046875 64.3056640625 c 4
 252.514648438 64.3056640625 238.512695312 63.0068359375 238.512695312 58.876953125 c 4
 238.512695312 58.0498046875 239.07421875 57.109375 240.280273438 56.04296875 c 4
 284.927734375 16.5673828125 357.94140625 -34.6787109375 482.666992188 -34.6787109375 c 4
 483.470703125 -34.6787109375 484.274414062 -34.67578125 485.080078125 -34.669921875 c 4
 629.071289062 -33.623046875 871 129.16015625 871 129.16015625 c 5
 974.6796875 63.1201171875 l 5
23.3203125 262.509765625 m 5
 23.3203125 262.509765625 338.200195312 455.549804688 511 460.629882812 c 5xd0
 667.282226562 457.310546875 791.477539062 362.897460938 863.3203125 310.134765625 c 4
 867.1640625 307.3125 872.470703125 306.123046875 878.684570312 306.123046875 c 4
 911.852539062 306.123046875 968.919921875 399.03515625 968.919921875 399.03515625 c 5xb0
 928.599609375 172.33984375 l 5
 582.040039062 262.509765625 l 5
 582.040039062 262.509765625 698.051757812 261.32421875 727.876953125 261.32421875 c 4
 745.485351562 261.32421875 759.487304688 262.623046875 759.487304688 266.75390625 c 4
 759.487304688 267.580078125 758.92578125 268.520507812 757.719726562 269.586914062 c 4
 713.072265625 309.0625 640.05859375 360.30859375 515.333007812 360.30859375 c 4xd0
 514.529296875 360.30859375 513.725585938 360.305664062 512.919921875 360.299804688 c 4
 368.928710938 359.252929688 127 196.469726562 127 196.469726562 c 5
 23.3203125 262.509765625 l 5
EndSplineSet
Validated: 1
EndChar

StartChar: Z
Encoding: 90 90 23
Width: 1000
Flags: W
HStem: -107 94<98 926> 88 100.321<363.202 586.371> 356.29 20G<65.8432 146.268 582.04 658.908 871 902.399 965.363 968.92> 416.34 3.12988G<95.601 127 851.732 932.157> 583.309 100.321<411.629 634.798>
LayerCount: 2
Fore
SplineSet
98 -13 m 5
 926 -13 l 5
 926 -107 l 5
 98 -107 l 5
 98 -13 l 5
974.6796875 286.120117188 m 5
 974.6796875 286.120117188 659.799804688 93.080078125 487 88 c 5
 330.717773438 91.3193359375 206.522460938 185.733398438 134.6796875 238.495117188 c 4
 130.8359375 241.317382812 125.529296875 242.506835938 119.315429688 242.506835938 c 4
 86.1474609375 242.506835938 29.080078125 149.594726562 29.080078125 149.594726562 c 5
 69.400390625 376.290039062 l 5
 415.959960938 286.120117188 l 5
 415.959960938 286.120117188 299.948242188 287.305664062 270.123046875 287.305664062 c 4
 252.514648438 287.305664062 238.512695312 286.006835938 238.512695312 281.876953125 c 4
 238.512695312 281.049804688 239.07421875 280.109375 240.280273438 279.04296875 c 4
 284.927734375 239.567382812 357.94140625 188.321289062 482.666992188 188.321289062 c 4
 483.470703125 188.321289062 484.274414062 188.32421875 485.080078125 188.330078125 c 4
 629.071289062 189.376953125 871 352.16015625 871 352.16015625 c 5
 974.6796875 286.120117188 l 5
23.3203125 485.509765625 m 5
 23.3203125 485.509765625 338.200195312 678.549804688 511 683.629882812 c 5
 667.282226562 680.310546875 791.477539062 585.897460938 863.3203125 533.134765625 c 4
 867.1640625 530.3125 872.470703125 529.123046875 878.684570312 529.123046875 c 4
 911.852539062 529.123046875 968.919921875 622.03515625 968.919921875 622.03515625 c 5
 928.599609375 395.33984375 l 5
 582.040039062 485.509765625 l 5
 582.040039062 485.509765625 698.051757812 484.32421875 727.876953125 484.32421875 c 4
 745.485351562 484.32421875 759.487304688 485.623046875 759.487304688 489.75390625 c 4
 759.487304688 490.580078125 758.92578125 491.520507812 757.719726562 492.586914062 c 4
 713.072265625 532.0625 640.05859375 583.30859375 515.333007812 583.30859375 c 4
 514.529296875 583.30859375 513.725585938 583.305664062 512.919921875 583.299804688 c 4
 368.928710938 582.252929688 127 419.469726562 127 419.469726562 c 5
 23.3203125 485.509765625 l 5
EndSplineSet
Validated: 1
EndChar

StartChar: one
Encoding: 49 49 24
Width: 1000
HStem: 506 20G<166.704 178.634 805.62 817.836> 619 21G<296.02 368.03 619.242 684.796>
LayerCount: 2
Fore
SplineSet
435 652 m 1
 265 619 l 1
 493 766 l 1
 715 619 l 1
 557 652 l 1
 577 404 l 1
 846 384 l 1
 799 526 l 1
 977 337 l 1
 799 102 l 1
 846 287 l 1
 577 267 l 1
 557 -6 l 5
 715 10 l 1
 493 -170 l 1
 265 10 l 1
 435 -6 l 1
 415 267 l 1
 152 287 l 1
 165 104 l 1
 29 337 l 1
 183 526 l 1
 152 384 l 1
 415 404 l 1
 435 652 l 1
EndSplineSet
Validated: 1
EndChar

StartChar: two
Encoding: 50 50 25
Width: 1000
Flags: W
HStem: 100.88 86.1396<278.316 477.175> 408.86 68.4395<217.56 345.22 413.66 549.58> 581.42 20G<345.22 413.66> 692.06 93.2207<278.316 478.203>
VStem: 36.0596 89.6807<341.367 537.216> 345.22 68.4404<278.84 408.86 477.3 601.42> 630.78 89.6797<338.935 537.216>
LayerCount: 2
Fore
SplineSet
125.740234375 439.540039062 m 0
 125.740234375 300.299804688 239.01953125 187.01953125 378.259765625 187.01953125 c 0
 517.5 187.01953125 630.780273438 300.299804688 630.780273438 439.540039062 c 0
 630.780273438 578.780273438 517.5 692.059570312 378.259765625 692.059570312 c 0
 239.01953125 692.059570312 125.740234375 578.780273438 125.740234375 439.540039062 c 0
217.559570312 477.299804688 m 1
 345.219726562 477.299804688 l 1
 345.219726562 601.419921875 l 5
 413.66015625 601.419921875 l 5
 413.66015625 477.299804688 l 1
 549.580078125 477.299804688 l 1
 549.580078125 408.860351562 l 1
 413.66015625 408.860351562 l 1
 413.66015625 278.83984375 l 1
 345.219726562 278.83984375 l 1
 345.219726562 408.860351562 l 1
 217.559570312 408.860351562 l 1
 217.559570312 477.299804688 l 1
36.0595703125 443.080078125 m 0
 36.0595703125 631.879882812 189.459960938 785.280273438 378.259765625 785.280273438 c 0
 567.059570312 785.280273438 720.459960938 631.879882812 720.459960938 443.080078125 c 0
 720.459960938 312.338867188 647.302734375 233.75390625 647.302734375 231.537109375 c 0
 647.302734375 218.008789062 960.067382812 -34.189453125 967.080078125 -91.4599609375 c 0
 968.768554688 -99.7138671875 969.681640625 -107.849609375 969.681640625 -115.637695312 c 0
 969.681640625 -150.846679688 951.022460938 -178.965820312 900.999023438 -178.965820312 c 0
 892.48828125 -178.965820312 883.069335938 -178.151367188 872.6796875 -176.419921875 c 0
 827.0234375 -169.395507812 595.926757812 170.564453125 585.23046875 170.564453125 c 0
 583.153320312 170.564453125 505.7265625 100.879882812 378.259765625 100.879882812 c 0
 189.459960938 100.879882812 36.0595703125 254.280273438 36.0595703125 443.080078125 c 0
EndSplineSet
Validated: 1
EndChar

StartChar: three
Encoding: 51 51 26
Width: 1000
Flags: HMW
LayerCount: 2
Fore
SplineSet
828 -150 m 1
 684 -122 l 1
 686.003447115 -114.326383929 737.602854983 84.8631596872 737.602854983 244.848139639 c 0
 737.602854983 312.112643393 728.481524727 372.446878225 702.717773438 408.703125 c 0
 665.727623637 460.732999079 596.369748675 473.745573014 526.1756379 473.745573014 c 0
 455.926403285 473.745573014 384.83961894 460.712553356 344.521118147 460.712553356 c 0
 342.337047575 460.712553356 340.145901773 460.764368348 340.1017046 460.764368348 c 0
 337.0008295 460.764368348 333.933098696 459.783477686 333.933098696 455.488194328 c 0
 333.933098696 450.935808961 337.379069915 442.66037794 347.883789062 427.883789062 c 0
 365.884765625 402.5625 426 250 426 250 c 1
 74 520 l 1
 390 784 l 1
 390 784 311.605132922 653.657882872 311.605132922 608.074118017 c 0
 311.605132922 603.304703977 312.463350284 599.463170707 314.359375 596.795898438 c 0
 318.109375 591.520507812 322.838862199 588.099566253 328.782226562 587.412109375 c 0
 341.774817784 585.909282752 357.345727258 585.363227042 374.871822223 585.363227042 c 0
 421.474549213 585.363227042 481.901485661 589.224133615 544.43717831 589.224133615 c 0
 659.454592136 589.224133615 781.605423417 576.163610861 838 502 c 1
 868.512070256 454.773395473 879.007358182 373.530205173 879.007358182 284.099528804 c 0
 879.007358182 86.9454565179 828 -150 828 -150 c 1
EndSplineSet
EndChar

StartChar: four
Encoding: 52 52 27
Width: 1000
HStem: -186 58<64 940> -18 70<178 824> 310 68<406 824> 420 58<178 311> 590 84<880 938> 736 40<880 938>
VStem: 20 44<-128 590> 117 61<52 420> 824 71<52 310> 940 40<-128 590 674 736>
LayerCount: 2
Fore
SplineSet
938 736 m 1
 880 736 l 1
 880 674 l 1
 938 674 l 1
 938 736 l 1
20 776 m 1
 980 776 l 1
 980 -186 l 1
 20 -186 l 1
 20 776 l 1
64 590 m 1
 64 -128 l 1
 940 -128 l 1
 940 590 l 1
 64 590 l 1
178 420 m 1
 178 52 l 1
 824 52 l 1
 824 310 l 1
 328 310 l 1
 311 420 l 1
 178 420 l 1
117 478 m 1
 385 478 l 1
 406 378 l 1
 895 378 l 1
 895 -18 l 1
 117 -18 l 1
 117 478 l 1
EndSplineSet
Validated: 1
EndChar

StartChar: five
Encoding: 53 53 28
Width: 1000
HStem: -163 113<388.569 623.554> 435 20G<385.755 429.377> 646 115<388.569 623.554>
VStem: 44 115<178.729 413.714> 855 113<178.729 413.714>
LayerCount: 2
Fore
SplineSet
720 301 m 5
 382 129 l 5
 386 455 l 5
 720 301 l 5
159 296 m 0
 159 104 314 -50 506 -50 c 0
 698 -50 855 104 855 296 c 0
 855 488 698 646 506 646 c 0
 314 646 159 488 159 296 c 0
44 296 m 0
 44 551 251 761 506 761 c 0
 761 761 968 551 968 296 c 0
 968 41 761 -163 506 -163 c 0
 251 -163 44 41 44 296 c 0
EndSplineSet
Validated: 1
EndChar

StartChar: six
Encoding: 54 54 29
Width: 1000
Flags: HMW
LayerCount: 2
Fore
SplineSet
227.959960938 302.559570312 m 0
 227.959960938 294.299623091 228.318913808 286.107584349 229.02209287 278.000005255 c 1
 241.405255674 135.223467541 360.540220659 18.6396484375 506 18.6396484375 c 0
 659.719726562 18.6396484375 785.719726562 148.83984375 785.719726562 302.559570312 c 0
 785.719726562 456.280273438 659.719726562 576.400390625 506 576.400390625 c 0
 424.372070312 576.400390625 351.034179688 542.529296875 300.200195312 487.741210938 c 1
 517 382 l 1
 71 360 l 5
 33 788 l 1
 162.999994653 599.008741356 l 1
 246.36167161 696.515167138 369.304514485 759 506 759 c 0
 756 759 956 550 956 300 c 0
 956 50 756 -145 506 -145 c 0
 265.413813701 -145 67.4285681984 35.5909446778 52.8593299999 271.999990292 c 1
 52.2892553157 281.250358099 52 290.586186299 52 300 c 0
 227.959960938 302.559570312 l 0
EndSplineSet
Validated: 1
EndChar

StartChar: seven
Encoding: 55 55 30
Width: 1000
Flags: W
HStem: 630 20G<57 354.692>
LayerCount: 2
Fore
SplineSet
351 240 m 5
 287 172 l 5
 443 24 l 5
 741 332 l 5
 675 396 l 5
 445 150 l 5
 351 240 l 5
57 650 m 5
 339 650 l 5
 441 520 l 5
 919 520 l 5
 919 -70 l 5
 57 -70 l 5
 57 650 l 5
EndSplineSet
Validated: 1
EndChar

StartChar: eight
Encoding: 56 56 31
Width: 1000
Flags: HMW
LayerCount: 2
Fore
SplineSet
7 72 m 1
 986 72 l 1
 986 -69 l 1
 7 -69 l 1
 7 72 l 1
7 455 m 25
 7 600 l 1
 986 600 l 1
 986 454 l 1
 916 454 l 1
 916 290 l 1
 877 290 l 1
 877 454 l 1
 749 454 l 1
 749 183 l 5
 649 183 l 5
 649 454 l 1
 526 454 l 1
 526 290 l 1
 481 290 l 1
 481 454 l 1
 346 454 l 1
 346 183 l 5
 259 183 l 5
 259 454 l 1
 121 454 l 1
 121 290 l 1
 76 290 l 1
 76 454 l 1
 7 455 l 25
EndSplineSet
Validated: 1
EndChar

StartChar: nine
Encoding: 57 57 32
Width: 1000
Flags: HMWO
LayerCount: 2
Fore
SplineSet
579 252 m 1
 989 252 l 1
 989 139 l 1
 704 139 l 1
 704 -89 l 1
 894 -89 l 1
 894 -17 l 1
 792 -17 l 1
 792 65 l 1
 989 65 l 1
 989 -190 l 1
 579 -190 l 1
 579 252 l 1
989 779 m 1
 989 665 l 1
 704 665 l 1
 704 445 l 1
 989 445 l 1
 989 331 l 1
 579 331 l 1
 579 779 l 1
 989 779 l 1
333 550 m 1
 295 657 l 1
 241 657 l 1
 199 550 l 1
 333 550 l 1
186 779 m 1
 350 779 l 1
 526 331 l 1
 398 331 l 1
 355 457 l 1
 171 457 l 1
 120 331 l 1
 8 331 l 1
 186 779 l 1
8 252 m 1
 526 252 l 1
 526 139 l 1
 333 139 l 1
 333 -190 l 1
 218 -190 l 1
 218 139 l 1
 8 139 l 1
 8 252 l 1
EndSplineSet
EndChar
